<svg xmlns="http://www.w3.org/2000/svg" viewBox="-32.98 -13.98 260.96 260.96" width="16" height="16">
  <g transform="translate(0.000000,233.000000) scale(0.100000,-0.100000)" fill="currentColor" fill-rule="evenodd" stroke="none">
    <path d="M1818 2197 c56 -56 102 -107 102 -112 0 -6 -47 -57 -105 -115 l-104 -104 19
-30 c119 -194 156 -424 104 -646 -9 -36 -38 -112 -66 -170 -45 -93 -61 -115
-147 -200 -81 -81 -111 -103 -191 -143 -143 -71 -196 -82 -390 -82 -191 0
-254 14 -399 91 l-85 45 -94 -93 c-51 -51 -100 -105 -108 -120 -29 -56 -10
-128 43 -164 27 -18 59 -19 671 -22 l642 -3 0 -150 0 -150 -667 3 c-660 3
-669 4 -726 25 -70 27 -145 80 -187 133 -73 93 -110 230 -90 340 19 106 59
169 191 304 l119 123 -35 74 c-56 118 -76 214 -76 359 0 94 5 145 21 205 59
229 206 416 405 515 126 62 216 82 375 83 156 0 259 -22 371 -78 l66 -33 109
109 c60 60 113 109 119 109 6 0 56 -46 113 -103z
M959 1870 c-150 -27 -286 -150 -338 -307 -30 -89 -30 -258 0 -345 44
-127 121 -215 235 -270 221 -105 483 -10 590 215 126 267 9 592 -247 686 -63
23 -175 33 -240 21z"/>
  </g>
</svg>