<svg xmlns="http://www.w3.org/2000/svg" viewBox="-83.64 -17.64 329.28 329.28" width="16" height="16">
  <g transform="translate(0.000000,294.000000) scale(0.100000,-0.100000)" fill="currentColor" fill-rule="evenodd" stroke="none">
    <path d="M1587 2885 c2 -11 -46 -119 -106 -239 l-108 -220 35 -55 c225 -350 127 -815
-217 -1036 -119 -76 -219 -110 -358 -121 -43 -4 -84 -11 -90 -17 -18 -13 -16
-37 4 -59 14 -15 32 -18 118 -18 167 0 251 -23 366 -101 78 -52 132 -118 181
-218 38 -78 42 -92 46 -186 5 -120 -6 -180 -53 -282 -42 -91 -138 -191 -230
-239 -115 -61 -157 -65 -580 -62 l-380 3 -3 22 c-4 27 193 432 222 455 19 16
49 18 262 18 225 0 242 1 258 19 20 22 14 55 -12 67 -9 5 -125 11 -257 14
l-240 5 -63 34 c-129 70 -202 185 -210 335 -5 96 4 128 74 269 l54 108 -50 50
c-356 356 -265 959 180 1193 127 67 187 80 364 81 l159 0 44 90 c25 50 52 96
61 103 12 9 77 12 272 10 247 -3 255 -4 257 -23z
M720 2201 c-98 -32 -171 -113 -186 -209 -9 -56 18 -139 61 -189 138
-162 398 -84 430 128 14 93 -39 196 -123 242 -56 30 -138 43 -182 28z"/>
  </g>
</svg>